<?xml version="1.0" encoding="UTF-8"?>
<!DOCTYPE svg PUBLIC "-//W3C//DTD SVG 1.1//EN" "http://www.w3.org/Graphics/SVG/1.1/DTD/svg11.dtd">
<svg xmlns="http://www.w3.org/2000/svg" version="1.1" width="70px" height="67px" style="shape-rendering:geometricPrecision; text-rendering:geometricPrecision; image-rendering:optimizeQuality; fill-rule:evenodd; clip-rule:evenodd" xmlns:xlink="http://www.w3.org/1999/xlink">
<g><path style="opacity:1" fill="#f3efe2" d="M -0.5,-0.5 C 8.5,-0.5 17.5,-0.5 26.5,-0.5C 23.4772,1.01945 20.4772,2.68612 17.5,4.5C 16.0707,6.69047 14.0707,8.0238 11.5,8.5C 10.6618,8.84171 10.3284,9.50838 10.5,10.5C 10.8333,11.8333 11.1667,13.1667 11.5,14.5C 10.5,15.8333 9.5,17.1667 8.5,18.5C 6.73758,19.2623 5.73758,20.5956 5.5,22.5C 3.83333,22.5 2.16667,22.5 0.5,22.5C 0.5,27.5 0.5,32.5 0.5,37.5C 4.5,37.5 8.5,37.5 12.5,37.5C 12.8333,37.5 13.1667,37.5 13.5,37.5C 13.5,37.8333 13.5,38.1667 13.5,38.5C 12.5,38.5 11.5,38.5 10.5,38.5C 9.5,38.5 8.5,38.5 7.5,38.5C 7.88161,42.3316 9.21495,45.665 11.5,48.5C 11.6107,49.1174 11.944,49.6174 12.5,50C 7.99802,50.0253 3.99802,51.1919 0.5,53.5C 0.185029,57.3714 0.518362,61.0381 1.5,64.5C 1.83333,65.1667 2.16667,65.8333 2.5,66.5C 1.5,66.5 0.5,66.5 -0.5,66.5C -0.5,44.1667 -0.5,21.8333 -0.5,-0.5 Z"/></g>
<g><path style="opacity:1" fill="#f8f3e8" d="M 42.5,-0.5 C 51.5,-0.5 60.5,-0.5 69.5,-0.5C 69.5,6.83333 69.5,14.1667 69.5,21.5C 67.6203,21.7709 66.287,21.1042 65.5,19.5C 64.3747,17.8712 63.0414,16.3712 61.5,15C 61.8333,14.6667 62.1667,14.3333 62.5,14C 60.9751,12.9914 59.3084,12.4914 57.5,12.5C 55.7028,11.2702 53.7028,10.6036 51.5,10.5C 50.0697,9.46253 48.403,8.79586 46.5,8.5C 44.1873,5.98016 42.854,2.98016 42.5,-0.5 Z"/></g>
<g><path style="opacity:1" fill="#5f3e19" d="M 38.5,-0.5 C 38.8333,-0.5 39.1667,-0.5 39.5,-0.5C 41.0808,1.14166 41.7475,3.14166 41.5,5.5C 40.5082,3.54386 39.5082,1.54386 38.5,-0.5 Z"/></g>
<g><path style="opacity:1" fill="#ad6f28" d="M 26.5,-0.5 C 30.5,-0.5 34.5,-0.5 38.5,-0.5C 39.5082,1.54386 40.5082,3.54386 41.5,5.5C 42.5,5.83333 43.1667,6.5 43.5,7.5C 43.719,8.67504 43.3857,9.67504 42.5,10.5C 38.8567,7.66935 34.8567,6.00268 30.5,5.5C 27.5783,4.99934 24.5783,4.66601 21.5,4.5C 21.5654,4.06178 21.3988,3.72845 21,3.5C 20.2917,4.38053 19.4584,5.0472 18.5,5.5C 17.8333,5.5 17.5,5.16667 17.5,4.5C 20.4772,2.68612 23.4772,1.01945 26.5,-0.5 Z"/></g>
<g><path style="opacity:1" fill="#412c1b" d="M 21.5,4.5 C 24.5783,4.66601 27.5783,4.99934 30.5,5.5C 28.5648,6.14952 26.5648,6.48285 24.5,6.5C 22.8212,6.71481 21.8212,6.04814 21.5,4.5 Z"/></g>
<g><path style="opacity:1" fill="#524c44" d="M 17.5,4.5 C 17.5,5.16667 17.8333,5.5 18.5,5.5C 17.1667,6.5 17.1667,7.5 18.5,8.5C 16.549,8.22672 15.049,8.89339 14,10.5C 13.5831,9.24402 12.7498,8.57735 11.5,8.5C 14.0707,8.0238 16.0707,6.69047 17.5,4.5 Z"/></g>
<g><path style="opacity:1" fill="#ded4c5" d="M 21.5,4.5 C 21.8212,6.04814 22.8212,6.71481 24.5,6.5C 25.5,7.16667 26.5,7.83333 27.5,8.5C 26.8825,10.2292 25.8825,11.7292 24.5,13C 21.5184,13.498 18.5184,13.6646 15.5,13.5C 15.5,12.8333 15.5,12.1667 15.5,11.5C 17.1898,11.1436 18.1898,10.1436 18.5,8.5C 17.1667,7.5 17.1667,6.5 18.5,5.5C 19.4584,5.0472 20.2917,4.38053 21,3.5C 21.3988,3.72845 21.5654,4.06178 21.5,4.5 Z"/></g>
<g><path style="opacity:1" fill="#1f1b18" d="M 11.5,8.5 C 12.7498,8.57735 13.5831,9.24402 14,10.5C 15.049,8.89339 16.549,8.22672 18.5,8.5C 18.1898,10.1436 17.1898,11.1436 15.5,11.5C 13.7839,11.3713 12.1172,11.038 10.5,10.5C 10.3284,9.50838 10.6618,8.84171 11.5,8.5 Z"/></g>
<g><path style="opacity:1" fill="#463e35" d="M 35.5,9.5 C 38.0838,10.0483 39.0838,11.715 38.5,14.5C 37.1667,14.5 35.8333,14.5 34.5,14.5C 34.369,13.7611 34.5357,13.0944 35,12.5C 38.1103,13.6734 38.277,13.1734 35.5,11C 32.9802,10.4784 30.3135,10.4784 27.5,11C 29.9368,9.62527 32.6035,9.12527 35.5,9.5 Z"/></g>
<g><path style="opacity:1" fill="#ab6a21" d="M 51.5,10.5 C 53.7028,10.6036 55.7028,11.2702 57.5,12.5C 56.5525,13.9779 55.2191,14.9779 53.5,15.5C 52.5,15.5 51.5,15.5 50.5,15.5C 50.2155,13.5853 50.5489,11.9187 51.5,10.5 Z"/></g>
<g><path style="opacity:1" fill="#857a6b" d="M 27.5,8.5 C 30.3854,8.1936 33.0521,8.52693 35.5,9.5C 32.6035,9.12527 29.9368,9.62527 27.5,11C 30.3135,10.4784 32.9802,10.4784 35.5,11C 38.277,13.1734 38.1103,13.6734 35,12.5C 34.5357,13.0944 34.369,13.7611 34.5,14.5C 27.8233,15.116 21.1566,15.7827 14.5,16.5C 14.2627,15.209 14.596,14.209 15.5,13.5C 18.5184,13.6646 21.5184,13.498 24.5,13C 25.8825,11.7292 26.8825,10.2292 27.5,8.5 Z"/></g>
<g><path style="opacity:1" fill="#614228" d="M 11.5,14.5 C 13.6477,14.3894 13.981,15.056 12.5,16.5C 11.4231,17.7051 10.0898,18.3718 8.5,18.5C 9.5,17.1667 10.5,15.8333 11.5,14.5 Z"/></g>
<g><path style="opacity:1" fill="#8d551c" d="M 30.5,5.5 C 34.8567,6.00268 38.8567,7.66935 42.5,10.5C 43.3857,9.67504 43.719,8.67504 43.5,7.5C 44.5983,8.60093 44.765,9.93426 44,11.5C 42.5905,12.7875 41.0905,13.9542 39.5,15C 34.1343,16.0675 28.8009,17.2342 23.5,18.5C 23.5,19.5 23.5,20.5 23.5,21.5C 19.2147,22.2949 14.8814,22.6282 10.5,22.5C 12.3264,20.8525 13.6597,18.8525 14.5,16.5C 21.1566,15.7827 27.8233,15.116 34.5,14.5C 35.8333,14.5 37.1667,14.5 38.5,14.5C 39.0838,11.715 38.0838,10.0483 35.5,9.5C 33.0521,8.52693 30.3854,8.1936 27.5,8.5C 26.5,7.83333 25.5,7.16667 24.5,6.5C 26.5648,6.48285 28.5648,6.14952 30.5,5.5 Z"/></g>
<g><path style="opacity:1" fill="#4b2a14" d="M 46.5,8.5 C 48.403,8.79586 50.0697,9.46253 51.5,10.5C 50.5489,11.9187 50.2155,13.5853 50.5,15.5C 51.5,15.5 52.5,15.5 53.5,15.5C 53.5,15.8333 53.5,16.1667 53.5,16.5C 51.8333,17.1667 50.1667,17.8333 48.5,18.5C 47.8333,18.8333 47.1667,19.1667 46.5,19.5C 46.6243,17.4184 47.6243,15.9184 49.5,15C 48.5941,12.7787 47.5941,10.6121 46.5,8.5 Z"/></g>
<g><path style="opacity:1" fill="#1a0b02" d="M 39.5,-0.5 C 40.5,-0.5 41.5,-0.5 42.5,-0.5C 42.854,2.98016 44.1873,5.98016 46.5,8.5C 46.0707,9.95269 45.904,11.6194 46,13.5C 45.6667,13.1667 45.3333,12.8333 45,12.5C 43.907,14.3492 42.5737,16.0158 41,17.5C 40.6667,17.1667 40.3333,16.8333 40,16.5C 38.786,18.0488 37.286,19.2155 35.5,20C 31.9748,20.1787 28.6414,20.6787 25.5,21.5C 24.8333,21.5 24.1667,21.5 23.5,21.5C 23.5,20.5 23.5,19.5 23.5,18.5C 28.8009,17.2342 34.1343,16.0675 39.5,15C 41.0905,13.9542 42.5905,12.7875 44,11.5C 44.765,9.93426 44.5983,8.60093 43.5,7.5C 43.1667,6.5 42.5,5.83333 41.5,5.5C 41.7475,3.14166 41.0808,1.14166 39.5,-0.5 Z"/></g>
<g><path style="opacity:1" fill="#b0a798" d="M 10.5,10.5 C 12.1172,11.038 13.7839,11.3713 15.5,11.5C 15.5,12.1667 15.5,12.8333 15.5,13.5C 14.596,14.209 14.2627,15.209 14.5,16.5C 13.6597,18.8525 12.3264,20.8525 10.5,22.5C 9.83333,22.5 9.16667,22.5 8.5,22.5C 7.5,22.5 6.5,22.5 5.5,22.5C 5.73758,20.5956 6.73758,19.2623 8.5,18.5C 10.0898,18.3718 11.4231,17.7051 12.5,16.5C 13.981,15.056 13.6477,14.3894 11.5,14.5C 11.1667,13.1667 10.8333,11.8333 10.5,10.5 Z"/></g>
<g><path style="opacity:1" fill="#372112" d="M 44.5,19.5 C 43.6618,19.8417 43.3284,20.5084 43.5,21.5C 42.8333,21.5 42.1667,21.5 41.5,21.5C 40.8333,21.5 40.1667,21.5 39.5,21.5C 39.1667,21.5 38.8333,21.5 38.5,21.5C 40.7611,20.4103 42.5945,18.7437 44,16.5C 44.4828,17.448 44.6495,18.448 44.5,19.5 Z"/></g>
<g><path style="opacity:1" fill="#e6dccf" d="M 48.5,18.5 C 50.1667,17.8333 51.8333,17.1667 53.5,16.5C 55.8555,15.4249 58.1889,15.4249 60.5,16.5C 59.2713,17.2811 57.938,17.7811 56.5,18C 57.5,18.3333 58.5,18.6667 59.5,19C 56.6285,19.3148 53.7952,19.8148 51,20.5C 49.699,20.3613 48.8656,19.6946 48.5,18.5 Z"/></g>
<g><path style="opacity:1" fill="#713c0c" d="M 46.5,8.5 C 47.5941,10.6121 48.5941,12.7787 49.5,15C 47.6243,15.9184 46.6243,17.4184 46.5,19.5C 45.8333,19.5 45.1667,19.5 44.5,19.5C 44.6495,18.448 44.4828,17.448 44,16.5C 42.5945,18.7437 40.7611,20.4103 38.5,21.5C 34.1667,21.5 29.8333,21.5 25.5,21.5C 28.6414,20.6787 31.9748,20.1787 35.5,20C 37.286,19.2155 38.786,18.0488 40,16.5C 40.3333,16.8333 40.6667,17.1667 41,17.5C 42.5737,16.0158 43.907,14.3492 45,12.5C 45.3333,12.8333 45.6667,13.1667 46,13.5C 45.904,11.6194 46.0707,9.95269 46.5,8.5 Z"/></g>
<g><path style="opacity:1" fill="#9c9284" d="M 57.5,12.5 C 59.3084,12.4914 60.9751,12.9914 62.5,14C 62.1667,14.3333 61.8333,14.6667 61.5,15C 63.0414,16.3712 64.3747,17.8712 65.5,19.5C 64.1667,19.5 63.5,20.1667 63.5,21.5C 57.57,21.1282 51.9033,21.7949 46.5,23.5C 45.1667,24.1667 43.8333,24.8333 42.5,25.5C 42.7214,24.2652 43.3881,23.2652 44.5,22.5C 44.3764,21.8933 44.0431,21.56 43.5,21.5C 43.3284,20.5084 43.6618,19.8417 44.5,19.5C 45.1667,19.5 45.8333,19.5 46.5,19.5C 47.1667,19.1667 47.8333,18.8333 48.5,18.5C 48.8656,19.6946 49.699,20.3613 51,20.5C 53.7952,19.8148 56.6285,19.3148 59.5,19C 58.5,18.6667 57.5,18.3333 56.5,18C 57.938,17.7811 59.2713,17.2811 60.5,16.5C 58.1889,15.4249 55.8555,15.4249 53.5,16.5C 53.5,16.1667 53.5,15.8333 53.5,15.5C 55.2191,14.9779 56.5525,13.9779 57.5,12.5 Z"/></g>
<g><path style="opacity:1" fill="#a96c25" d="M 23.5,21.5 C 24.1667,21.5 24.8333,21.5 25.5,21.5C 29.8333,21.5 34.1667,21.5 38.5,21.5C 38.8333,21.5 39.1667,21.5 39.5,21.5C 37.9402,23.4288 35.9402,24.7622 33.5,25.5C 33.5,24.5 33.5,23.5 33.5,22.5C 31.1667,22.5 28.8333,22.5 26.5,22.5C 25.209,22.7373 24.209,22.404 23.5,21.5 Z"/></g>
<g><path style="opacity:1" fill="#56493d" d="M 65.5,19.5 C 66.287,21.1042 67.6203,21.7709 69.5,21.5C 69.5,22.8333 69.5,24.1667 69.5,25.5C 67.7105,24.1228 65.7105,23.1228 63.5,22.5C 63.5,22.1667 63.5,21.8333 63.5,21.5C 63.5,20.1667 64.1667,19.5 65.5,19.5 Z"/></g>
<g><path style="opacity:1" fill="#d8cfc2" d="M 41.5,21.5 C 42.1667,21.5 42.8333,21.5 43.5,21.5C 44.0431,21.56 44.3764,21.8933 44.5,22.5C 43.3881,23.2652 42.7214,24.2652 42.5,25.5C 42.5,25.8333 42.5,26.1667 42.5,26.5C 41.0783,26.2914 39.745,25.7914 38.5,25C 39.7101,23.9609 40.7101,22.7942 41.5,21.5 Z"/></g>
<g><path style="opacity:1" fill="#b36f23" d="M 63.5,22.5 C 63.5,24.1667 63.5,25.8333 63.5,27.5C 63.5,28.1667 63.5,28.8333 63.5,29.5C 61.5,29.5 59.5,29.5 57.5,29.5C 56.8333,29.5 56.1667,29.5 55.5,29.5C 55.5,29.1667 55.5,28.8333 55.5,28.5C 56.7349,26.983 56.7349,25.3163 55.5,23.5C 58.0865,22.52 60.7531,22.1866 63.5,22.5 Z"/></g>
<g><path style="opacity:1" fill="#968b7d" d="M 26.5,22.5 C 28.8333,22.5 31.1667,22.5 33.5,22.5C 33.5,23.5 33.5,24.5 33.5,25.5C 31.1432,25.6633 28.8098,25.4966 26.5,25C 27.8333,24.6667 29.1667,24.3333 30.5,24C 28.9419,23.79 27.6085,23.29 26.5,22.5 Z"/></g>
<g><path style="opacity:1" fill="#ae6e23" d="M 46.5,23.5 C 48.5273,23.3379 50.5273,23.5045 52.5,24C 52.9574,24.414 53.2907,24.914 53.5,25.5C 52.3881,26.2652 51.7214,27.2652 51.5,28.5C 48.5,28.5 45.5,28.5 42.5,28.5C 42.5,28.1667 42.5,27.8333 42.5,27.5C 42.5,27.1667 42.5,26.8333 42.5,26.5C 42.5,26.1667 42.5,25.8333 42.5,25.5C 43.8333,24.8333 45.1667,24.1667 46.5,23.5 Z"/></g>
<g><path style="opacity:1" fill="#774212" d="M 63.5,22.5 C 65.7105,23.1228 67.7105,24.1228 69.5,25.5C 69.5,26.5 69.5,27.5 69.5,28.5C 69.1667,28.5 68.8333,28.5 68.5,28.5C 68.1667,28.5 67.8333,28.5 67.5,28.5C 66.8743,27.4711 66.041,26.4711 65,25.5C 64.7216,26.4158 64.2216,27.0825 63.5,27.5C 63.5,25.8333 63.5,24.1667 63.5,22.5 Z"/></g>
<g><path style="opacity:1" fill="#64340d" d="M 63.5,21.5 C 63.5,21.8333 63.5,22.1667 63.5,22.5C 60.7531,22.1866 58.0865,22.52 55.5,23.5C 56.7349,25.3163 56.7349,26.983 55.5,28.5C 54.1667,28.5 52.8333,28.5 51.5,28.5C 51.7214,27.2652 52.3881,26.2652 53.5,25.5C 53.2907,24.914 52.9574,24.414 52.5,24C 50.5273,23.5045 48.5273,23.3379 46.5,23.5C 51.9033,21.7949 57.57,21.1282 63.5,21.5 Z"/></g>
<g><path style="opacity:1" fill="#554f49" d="M 5.5,22.5 C 6.5,22.5 7.5,22.5 8.5,22.5C 6.39263,23.4682 4.0593,23.8016 1.5,23.5C 1.5,27.8333 1.5,32.1667 1.5,36.5C 5.37141,36.185 9.03808,36.5184 12.5,37.5C 8.5,37.5 4.5,37.5 0.5,37.5C 0.5,32.5 0.5,27.5 0.5,22.5C 2.16667,22.5 3.83333,22.5 5.5,22.5 Z"/></g>
<g><path style="opacity:1" fill="#2d1a0d" d="M 67.5,28.5 C 66.0413,28.4326 64.7079,28.7659 63.5,29.5C 63.5,28.8333 63.5,28.1667 63.5,27.5C 64.2216,27.0825 64.7216,26.4158 65,25.5C 66.041,26.4711 66.8743,27.4711 67.5,28.5 Z"/></g>
<g><path style="opacity:1" fill="#857c73" d="M 39.5,21.5 C 40.1667,21.5 40.8333,21.5 41.5,21.5C 40.7101,22.7942 39.7101,23.9609 38.5,25C 39.745,25.7914 41.0783,26.2914 42.5,26.5C 42.5,26.8333 42.5,27.1667 42.5,27.5C 41.5,27.5 40.5,27.5 39.5,27.5C 39.1742,29.6607 38.1742,31.4941 36.5,33C 37.1667,33.3333 37.8333,33.6667 38.5,34C 34.9031,35.2765 31.2364,35.6099 27.5,35C 35.1672,34.1872 34.8339,33.5205 26.5,33C 30.5,32.3333 30.5,31.6667 26.5,31C 29.1667,30.6667 31.8333,30.3333 34.5,30C 27.4968,29.5034 27.1635,28.8368 33.5,28C 31.5,27.6667 29.5,27.3333 27.5,27C 29.7078,26.8091 31.7078,26.3091 33.5,25.5C 35.9402,24.7622 37.9402,23.4288 39.5,21.5 Z"/></g>
<g><path style="opacity:1" fill="#e5dacd" d="M 35.5,25.5 C 37.0481,25.8212 37.7148,26.8212 37.5,28.5C 34.7524,28.5983 34.0857,27.5983 35.5,25.5 Z"/></g>
<g><path style="opacity:1" fill="#130c0a" d="M 23.5,21.5 C 24.209,22.404 25.209,22.7373 26.5,22.5C 27.6085,23.29 28.9419,23.79 30.5,24C 29.1667,24.3333 27.8333,24.6667 26.5,25C 28.8098,25.4966 31.1432,25.6633 33.5,25.5C 31.7078,26.3091 29.7078,26.8091 27.5,27C 29.5,27.3333 31.5,27.6667 33.5,28C 27.1635,28.8368 27.4968,29.5034 34.5,30C 31.8333,30.3333 29.1667,30.6667 26.5,31C 30.5,31.6667 30.5,32.3333 26.5,33C 34.8339,33.5205 35.1672,34.1872 27.5,35C 31.2364,35.6099 34.9031,35.2765 38.5,34C 37.8333,33.6667 37.1667,33.3333 36.5,33C 38.1742,31.4941 39.1742,29.6607 39.5,27.5C 40.5,27.5 41.5,27.5 42.5,27.5C 42.5,27.8333 42.5,28.1667 42.5,28.5C 42.5,29.8333 42.5,31.1667 42.5,32.5C 40.5589,34.0106 40.0589,36.0106 41,38.5C 41.3826,37.944 41.8826,37.6107 42.5,37.5C 43.1667,38.1667 43.8333,38.8333 44.5,39.5C 44.1583,40.3382 43.4916,40.6716 42.5,40.5C 39.5,40.5 36.5,40.5 33.5,40.5C 29.4121,39.5661 25.4121,38.2327 21.5,36.5C 18.8853,37.2692 16.2186,37.6025 13.5,37.5C 13.1667,37.5 12.8333,37.5 12.5,37.5C 9.03808,36.5184 5.37141,36.185 1.5,36.5C 1.5,32.1667 1.5,27.8333 1.5,23.5C 4.0593,23.8016 6.39263,23.4682 8.5,22.5C 9.16667,22.5 9.83333,22.5 10.5,22.5C 14.8814,22.6282 19.2147,22.2949 23.5,21.5 Z"/></g>
<g><path style="opacity:1" fill="#8b8072" d="M 42.5,28.5 C 45.5,28.5 48.5,28.5 51.5,28.5C 52.8333,28.5 54.1667,28.5 55.5,28.5C 55.5,28.8333 55.5,29.1667 55.5,29.5C 52.2065,29.259 49.2065,30.0924 46.5,32C 49.146,32.4974 51.8127,32.6641 54.5,32.5C 53.791,33.404 52.791,33.7373 51.5,33.5C 48.2869,33.81 45.2869,33.4767 42.5,32.5C 42.5,31.1667 42.5,29.8333 42.5,28.5 Z"/></g>
<g><path style="opacity:1" fill="#72685d" d="M 67.5,28.5 C 67.8333,28.5 68.1667,28.5 68.5,28.5C 68.5858,29.4959 68.2524,30.3292 67.5,31C 65.256,31.0496 63.5893,31.8829 62.5,33.5C 61.2921,32.7659 59.9587,32.4326 58.5,32.5C 58.4431,31.391 58.1098,30.391 57.5,29.5C 59.5,29.5 61.5,29.5 63.5,29.5C 64.7079,28.7659 66.0413,28.4326 67.5,28.5 Z"/></g>
<g><path style="opacity:1" fill="#e6dcce" d="M 55.5,29.5 C 56.1667,29.5 56.8333,29.5 57.5,29.5C 58.1098,30.391 58.4431,31.391 58.5,32.5C 58.1667,32.5 57.8333,32.5 57.5,32.5C 56.5,32.5 55.5,32.5 54.5,32.5C 51.8127,32.6641 49.146,32.4974 46.5,32C 49.2065,30.0924 52.2065,29.259 55.5,29.5 Z"/></g>
<g><path style="opacity:1" fill="#3c1e07" d="M 68.5,28.5 C 68.8333,28.5 69.1667,28.5 69.5,28.5C 69.5,29.8333 69.5,31.1667 69.5,32.5C 68.1667,32.5 66.8333,32.5 65.5,32.5C 64.7784,32.9175 64.2784,33.5842 64,34.5C 63.6174,33.944 63.1174,33.6107 62.5,33.5C 63.5893,31.8829 65.256,31.0496 67.5,31C 68.2524,30.3292 68.5858,29.4959 68.5,28.5 Z"/></g>
<g><path style="opacity:1" fill="#b16e22" d="M 57.5,32.5 C 57.8333,32.5 58.1667,32.5 58.5,32.5C 59.9587,32.4326 61.2921,32.7659 62.5,33.5C 62.762,34.9778 62.4287,36.3112 61.5,37.5C 59.6565,37.2448 57.6565,37.0781 55.5,37C 54.7476,36.3292 54.4142,35.4959 54.5,34.5C 55.7095,34.0679 56.7095,33.4013 57.5,32.5 Z"/></g>
<g><path style="opacity:1" fill="#aa651b" d="M 65.5,32.5 C 66.8333,32.5 68.1667,32.5 69.5,32.5C 69.5,35.1667 69.5,37.8333 69.5,40.5C 67.8595,41.147 66.5261,42.147 65.5,43.5C 65.5,43.1667 65.5,42.8333 65.5,42.5C 65.5,39.1667 65.5,35.8333 65.5,32.5 Z"/></g>
<g><path style="opacity:1" fill="#975a1a" d="M 42.5,32.5 C 45.2869,33.4767 48.2869,33.81 51.5,33.5C 51.5,34.5 51.5,35.5 51.5,36.5C 49.5,36.8333 47.5,37.1667 45.5,37.5C 45.6495,36.448 45.4828,35.448 45,34.5C 44.7645,36.1193 43.9311,37.1193 42.5,37.5C 41.8826,37.6107 41.3826,37.944 41,38.5C 40.0589,36.0106 40.5589,34.0106 42.5,32.5 Z"/></g>
<g><path style="opacity:1" fill="#5b2f0c" d="M 54.5,32.5 C 55.5,32.5 56.5,32.5 57.5,32.5C 56.7095,33.4013 55.7095,34.0679 54.5,34.5C 52.8958,35.287 52.2291,36.6203 52.5,38.5C 49.8728,39.0916 47.2062,39.4249 44.5,39.5C 43.8333,38.8333 43.1667,38.1667 42.5,37.5C 43.9311,37.1193 44.7645,36.1193 45,34.5C 45.4828,35.448 45.6495,36.448 45.5,37.5C 47.5,37.1667 49.5,36.8333 51.5,36.5C 51.5,35.5 51.5,34.5 51.5,33.5C 52.791,33.7373 53.791,33.404 54.5,32.5 Z"/></g>
<g><path style="opacity:1" fill="#85450c" d="M 65.5,32.5 C 65.5,35.8333 65.5,39.1667 65.5,42.5C 64.6909,40.7078 64.1909,38.7078 64,36.5C 63.7638,38.764 63.2638,40.9307 62.5,43C 58.5138,43.4988 54.5138,43.6655 50.5,43.5C 50.1667,43.5 49.8333,43.5 49.5,43.5C 47.4727,43.6621 45.4727,43.4955 43.5,43C 42.7476,42.3292 42.4142,41.4959 42.5,40.5C 43.4916,40.6716 44.1583,40.3382 44.5,39.5C 47.2062,39.4249 49.8728,39.0916 52.5,38.5C 52.2291,36.6203 52.8958,35.287 54.5,34.5C 54.4142,35.4959 54.7476,36.3292 55.5,37C 57.6565,37.0781 59.6565,37.2448 61.5,37.5C 62.4287,36.3112 62.762,34.9778 62.5,33.5C 63.1174,33.6107 63.6174,33.944 64,34.5C 64.2784,33.5842 64.7784,32.9175 65.5,32.5 Z"/></g>
<g><path style="opacity:1" fill="#68340b" d="M 33.5,40.5 C 33.5,40.8333 33.5,41.1667 33.5,41.5C 30.0172,42.0841 27.0172,41.2508 24.5,39C 20.8484,38.5014 17.1817,38.3347 13.5,38.5C 13.5,38.1667 13.5,37.8333 13.5,37.5C 16.2186,37.6025 18.8853,37.2692 21.5,36.5C 25.4121,38.2327 29.4121,39.5661 33.5,40.5 Z"/></g>
<g><path style="opacity:1" fill="#442910" d="M 33.5,41.5 C 33.5,41.1667 33.5,40.8333 33.5,40.5C 36.5,40.5 39.5,40.5 42.5,40.5C 42.4142,41.4959 42.7476,42.3292 43.5,43C 45.4727,43.4955 47.4727,43.6621 49.5,43.5C 49.1667,44.1667 48.8333,44.8333 48.5,45.5C 46.283,44.6314 43.9496,44.298 41.5,44.5C 39.1098,42.9802 36.4432,41.9802 33.5,41.5 Z"/></g>
<g><path style="opacity:1" fill="#b67223" d="M 55.5,39.5 C 57.9775,39.0508 59.9775,39.7175 61.5,41.5C 57.2047,42.6609 52.8713,42.8275 48.5,42C 50.8329,40.957 53.1663,40.1237 55.5,39.5 Z"/></g>
<g><path style="opacity:1" fill="#3c1c04" d="M 65.5,42.5 C 65.5,42.8333 65.5,43.1667 65.5,43.5C 64.7095,44.4013 63.7095,45.0679 62.5,45.5C 58.5,44.8333 54.5,44.1667 50.5,43.5C 54.5138,43.6655 58.5138,43.4988 62.5,43C 63.2638,40.9307 63.7638,38.764 64,36.5C 64.1909,38.7078 64.6909,40.7078 65.5,42.5 Z"/></g>
<g><path style="opacity:1" fill="#ab691e" d="M 10.5,38.5 C 11.5,38.5 12.5,38.5 13.5,38.5C 17.1817,38.3347 20.8484,38.5014 24.5,39C 27.0172,41.2508 30.0172,42.0841 33.5,41.5C 32.7375,42.2679 31.7375,42.7679 30.5,43C 31.8333,43.6667 31.8333,44.3333 30.5,45C 32.3008,45.3173 32.6341,45.984 31.5,47C 25.8596,46.8677 20.193,46.701 14.5,46.5C 11.2819,46.3491 10.9485,45.5158 13.5,44C 10.8333,43 10.8333,42 13.5,41C 11.8807,40.7645 10.8807,39.9311 10.5,38.5 Z"/></g>
<g><path style="opacity:1" fill="#6b3306" d="M 41.5,44.5 C 43.9496,44.298 46.283,44.6314 48.5,45.5C 49.8734,45.3433 51.2068,45.51 52.5,46C 48.6437,46.1773 44.977,46.6773 41.5,47.5C 38.8733,46.8951 36.2066,46.3951 33.5,46C 36.3647,45.8171 39.0314,45.3171 41.5,44.5 Z"/></g>
<g><path style="opacity:1" fill="#69340a" d="M 69.5,40.5 C 69.5,43.1667 69.5,45.8333 69.5,48.5C 68.1667,49.1667 67.1667,50.1667 66.5,51.5C 65.5,51.5 64.5,51.5 63.5,51.5C 63.719,50.325 63.3857,49.325 62.5,48.5C 57.9585,49.9845 53.2919,50.6512 48.5,50.5C 47.8333,50.5 47.5,50.1667 47.5,49.5C 48.8734,49.6567 50.2068,49.49 51.5,49C 49.9419,48.79 48.6085,48.29 47.5,47.5C 52.6716,47.8175 57.6716,47.1508 62.5,45.5C 63.7095,45.0679 64.7095,44.4013 65.5,43.5C 66.5261,42.147 67.8595,41.147 69.5,40.5 Z"/></g>
<g><path style="opacity:1" fill="#542f11" d="M 10.5,38.5 C 10.8807,39.9311 11.8807,40.7645 13.5,41C 10.8333,42 10.8333,43 13.5,44C 10.9485,45.5158 11.2819,46.3491 14.5,46.5C 13.8333,47.1667 13.1667,47.8333 12.5,48.5C 12.1667,48.5 11.8333,48.5 11.5,48.5C 9.21495,45.665 7.88161,42.3316 7.5,38.5C 8.5,38.5 9.5,38.5 10.5,38.5 Z"/></g>
<g><path style="opacity:1" fill="#190900" d="M 49.5,43.5 C 49.8333,43.5 50.1667,43.5 50.5,43.5C 54.5,44.1667 58.5,44.8333 62.5,45.5C 57.6716,47.1508 52.6716,47.8175 47.5,47.5C 45.5,47.5 43.5,47.5 41.5,47.5C 44.977,46.6773 48.6437,46.1773 52.5,46C 51.2068,45.51 49.8734,45.3433 48.5,45.5C 48.8333,44.8333 49.1667,44.1667 49.5,43.5 Z"/></g>
<g><path style="opacity:1" fill="#905113" d="M 33.5,41.5 C 36.4432,41.9802 39.1098,42.9802 41.5,44.5C 39.0314,45.3171 36.3647,45.8171 33.5,46C 36.2066,46.3951 38.8733,46.8951 41.5,47.5C 43.5,47.5 45.5,47.5 47.5,47.5C 48.6085,48.29 49.9419,48.79 51.5,49C 50.2068,49.49 48.8734,49.6567 47.5,49.5C 47.1667,49.5 46.8333,49.5 46.5,49.5C 45.0328,49.8938 43.5328,50.2272 42,50.5C 32.1945,48.2511 22.3612,47.5844 12.5,48.5C 13.1667,47.8333 13.8333,47.1667 14.5,46.5C 20.193,46.701 25.8596,46.8677 31.5,47C 32.6341,45.984 32.3008,45.3173 30.5,45C 31.8333,44.3333 31.8333,43.6667 30.5,43C 31.7375,42.7679 32.7375,42.2679 33.5,41.5 Z"/></g>
<g><path style="opacity:1" fill="#1b130f" d="M 66.5,51.5 C 66.3893,52.1174 66.056,52.6174 65.5,53C 61.4899,53.5013 57.4899,54.0013 53.5,54.5C 50.6359,54.9358 48.3025,54.1025 46.5,52C 47.4158,51.7216 48.0825,51.2216 48.5,50.5C 53.2919,50.6512 57.9585,49.9845 62.5,48.5C 63.3857,49.325 63.719,50.325 63.5,51.5C 64.5,51.5 65.5,51.5 66.5,51.5 Z"/></g>
<g><path style="opacity:1" fill="#f7f3e7" d="M 69.5,48.5 C 69.5,54.5 69.5,60.5 69.5,66.5C 53.1667,66.5 36.8333,66.5 20.5,66.5C 24.9819,65.6745 29.6486,65.1745 34.5,65C 35.4637,60.9341 35.797,56.7675 35.5,52.5C 41.4026,55.2891 47.4026,55.9557 53.5,54.5C 57.4899,54.0013 61.4899,53.5013 65.5,53C 66.056,52.6174 66.3893,52.1174 66.5,51.5C 67.1667,50.1667 68.1667,49.1667 69.5,48.5 Z"/></g>
<g><path style="opacity:1" fill="#140c0a" d="M 46.5,49.5 C 45.6851,50.8366 44.5185,51.8366 43,52.5C 41.5421,51.2532 40.0421,51.2532 38.5,52.5C 38.1667,51.8333 37.8333,51.1667 37.5,50.5C 36.8165,50.8627 36.1499,51.1961 35.5,51.5C 34.609,50.8902 33.609,50.5569 32.5,50.5C 29.8589,49.7369 27.1922,49.5702 24.5,50C 25.8333,50.3333 27.1667,50.6667 28.5,51C 28.1667,51.3333 27.8333,51.6667 27.5,52C 29.1341,52.4935 30.8008,52.6602 32.5,52.5C 29.0139,52.9894 25.6806,54.156 22.5,56C 25.1667,56.3333 27.8333,56.6667 30.5,57C 28.5273,57.4955 26.5273,57.6621 24.5,57.5C 24.5,58.5 24.5,59.5 24.5,60.5C 32.4728,60.6737 32.4728,61.1737 24.5,62C 26.5,62.3333 28.5,62.6667 30.5,63C 22.8333,63.6667 15.1667,63.6667 7.5,63C 8.67209,62.5814 9.67209,61.9147 10.5,61C 8.95089,61.5219 7.45089,61.3553 6,60.5C 4.18861,61.4235 4.35527,62.2569 6.5,63C 6,63.1667 5.5,63.3333 5,63.5C 3.58786,62.3144 2.4212,60.981 1.5,59.5C 1.79472,57.2646 1.46138,55.2646 0.5,53.5C 3.99802,51.1919 7.99802,50.0253 12.5,50C 11.944,49.6174 11.6107,49.1174 11.5,48.5C 11.8333,48.5 12.1667,48.5 12.5,48.5C 22.3612,47.5844 32.1945,48.2511 42,50.5C 43.5328,50.2272 45.0328,49.8938 46.5,49.5 Z"/></g>
<g><path style="opacity:1" fill="#6b6660" d="M 32.5,50.5 C 32.5,51.1667 32.5,51.8333 32.5,52.5C 30.8008,52.6602 29.1341,52.4935 27.5,52C 27.8333,51.6667 28.1667,51.3333 28.5,51C 27.1667,50.6667 25.8333,50.3333 24.5,50C 27.1922,49.5702 29.8589,49.7369 32.5,50.5 Z"/></g>
<g><path style="opacity:1" fill="#523018" d="M 46.5,49.5 C 46.8333,49.5 47.1667,49.5 47.5,49.5C 47.5,50.1667 47.8333,50.5 48.5,50.5C 48.0825,51.2216 47.4158,51.7216 46.5,52C 48.3025,54.1025 50.6359,54.9358 53.5,54.5C 47.4026,55.9557 41.4026,55.2891 35.5,52.5C 35.5,52.1667 35.5,51.8333 35.5,51.5C 36.1499,51.1961 36.8165,50.8627 37.5,50.5C 37.8333,51.1667 38.1667,51.8333 38.5,52.5C 40.0421,51.2532 41.5421,51.2532 43,52.5C 44.5185,51.8366 45.6851,50.8366 46.5,49.5 Z"/></g>
<g><path style="opacity:1" fill="#706c65" d="M 0.5,53.5 C 1.46138,55.2646 1.79472,57.2646 1.5,59.5C 2.07145,61.36 2.07145,63.0267 1.5,64.5C 0.518362,61.0381 0.185029,57.3714 0.5,53.5 Z"/></g>
<g><path style="opacity:1" fill="#27221f" d="M 32.5,50.5 C 33.609,50.5569 34.609,50.8902 35.5,51.5C 35.5,51.8333 35.5,52.1667 35.5,52.5C 35.797,56.7675 35.4637,60.9341 34.5,65C 29.6486,65.1745 24.9819,65.6745 20.5,66.5C 14.5,66.5 8.5,66.5 2.5,66.5C 2.16667,65.8333 1.83333,65.1667 1.5,64.5C 2.07145,63.0267 2.07145,61.36 1.5,59.5C 2.4212,60.981 3.58786,62.3144 5,63.5C 5.5,63.3333 6,63.1667 6.5,63C 4.35527,62.2569 4.18861,61.4235 6,60.5C 7.45089,61.3553 8.95089,61.5219 10.5,61C 9.67209,61.9147 8.67209,62.5814 7.5,63C 15.1667,63.6667 22.8333,63.6667 30.5,63C 28.5,62.6667 26.5,62.3333 24.5,62C 32.4728,61.1737 32.4728,60.6737 24.5,60.5C 24.5,59.5 24.5,58.5 24.5,57.5C 26.5273,57.6621 28.5273,57.4955 30.5,57C 27.8333,56.6667 25.1667,56.3333 22.5,56C 25.6806,54.156 29.0139,52.9894 32.5,52.5C 32.5,51.8333 32.5,51.1667 32.5,50.5 Z"/></g>
</svg>
